<?xml version="1.0" encoding="utf-8"?>
<!-- Generator: Adobe Illustrator 23.0.3, SVG Export Plug-In . SVG Version: 6.00 Build 0)  -->
<svg version="1.1" id="Layer_1" xmlns="http://www.w3.org/2000/svg" xmlns:xlink="http://www.w3.org/1999/xlink" x="0px" y="0px"
	 viewBox="0 0 960 560" style="enable-background:new 0 0 960 560;" xml:space="preserve">
<style type="text/css">
	.st0{fill:#514F4E;}
	.st1{fill:#20201F;}
	.st2{fill:#03BBD4;}
</style>
<path class="st0" d="M313.15,106.82l-29.06,25.29v-10.03h-17.81v25.52l-20.73,18.04c-0.76,0.66-0.29,1.92,0.72,1.92h15.6v66.73
	c0,1.69,1.37,3.07,3.07,3.07h97.83c1.69,0,3.07-1.37,3.07-3.07v-66.73h15.6c1.01,0,1.48-1.25,0.72-1.92l-67.59-58.83
	C314.15,106.47,313.55,106.47,313.15,106.82z"/>
<path class="st1" d="M382.52,166.5c-0.03-0.24-0.15-0.48-0.37-0.67l-2.05-1.78c-0.01-0.08-0.04-0.15-0.07-0.23l-65.48-56.99
	c-0.4-0.35-1-0.35-1.41,0l-4.48,3.9l0.1,0.09l-0.18,0.16l54.9,47.78c-0.04,0.23-0.22,0.44-0.5,0.44h-5.2
	c-0.28,0-0.51,0.23-0.51,0.51v66.22c0,1.69-1.37,3.07-3.07,3.07h-92.35v5.32c0,1.69,1.37,3.07,3.07,3.07h97.83
	c1.69,0,3.07-1.37,3.07-3.07v-66.73h15.6C382.08,167.57,382.51,167.05,382.52,166.5z"/>
<path class="st1" d="M286.65,114.43h-23.63c-0.63,0-1.14,0.51-1.14,1.14v5.92c0,0.63,0.51,1.14,1.14,1.14h23.63
	c0.63,0,1.14-0.51,1.14-1.14v-5.92C287.79,114.94,287.28,114.43,286.65,114.43z"/>
<g>
	<g>
		<path class="st2" d="M335.65,192.05c-1.06,0-2.12-0.41-2.93-1.22c-5.04-5.04-11.74-7.81-18.86-7.81s-13.82,2.77-18.86,7.81
			c-1.62,1.62-4.25,1.62-5.87,0c-1.62-1.62-1.62-4.25,0-5.87c6.61-6.61,15.39-10.24,24.73-10.24s18.12,3.64,24.73,10.24
			c1.62,1.62,1.62,4.25,0,5.87C337.77,191.64,336.71,192.05,335.65,192.05z"/>
		<path class="st2" d="M345.85,179.82c-1.06,0-2.12-0.41-2.93-1.22c-7.76-7.76-18.09-12.04-29.07-12.04
			c-10.98,0-21.3,4.28-29.07,12.04c-1.62,1.62-4.25,1.62-5.87,0c-1.62-1.62-1.62-4.25,0-5.87c9.33-9.33,21.74-14.47,34.94-14.47
			c13.2,0,25.6,5.14,34.94,14.47c1.62,1.62,1.62,4.25,0,5.87C347.98,179.42,346.92,179.82,345.85,179.82z"/>
		<path class="st2" d="M325.98,204.23c-1.06,0-2.12-0.41-2.93-1.22c-5.07-5.07-13.32-5.07-18.39,0c-1.62,1.62-4.25,1.62-5.87,0
			c-1.62-1.62-1.62-4.25,0-5.87c8.31-8.31,21.82-8.31,30.13,0c1.62,1.62,1.62,4.25,0,5.87
			C328.11,203.83,327.04,204.23,325.98,204.23z"/>
		<circle class="st2" cx="313.85" cy="213.27" r="5.86"/>
	</g>
</g>
<path class="st1" d="M286.65,114.43h-7.39v8.19h7.39c0.63,0,1.14-0.51,1.14-1.14v-5.92C287.79,114.94,287.28,114.43,286.65,114.43z"
	/>
</svg>
