<svg xmlns="http://www.w3.org/2000/svg" viewBox="0 0 137.35 130.8"><defs><style>.cls-1{fill:#514f4e;}.cls-2{fill:#20201f;}.cls-3{fill:#03bcd5;}</style></defs><title>Asset 2</title><g id="Layer_2" data-name="Layer 2"><g id="Layer_1-2" data-name="Layer 1"><path class="cls-1" d="M68,.26,38.91,25.55v-10H21.11V41.05L.38,59.09A1.09,1.09,0,0,0,1.1,61H16.69v66.73a3.06,3.06,0,0,0,3.07,3.06h97.83a3.06,3.06,0,0,0,3.06-3.06V61h15.6a1.1,1.1,0,0,0,.72-1.92L69.38.26A1.08,1.08,0,0,0,68,.26Z"/><path class="cls-2" d="M137.34,59.94a1,1,0,0,0-.36-.68l-2-1.78a1.55,1.55,0,0,0-.07-.23L69.38.26A1.08,1.08,0,0,0,68,.26l-4.48,3.9.11.09-.18.16,54.9,47.77a.52.52,0,0,1-.51.44h-5.19a.51.51,0,0,0-.52.51v66.22a3.06,3.06,0,0,1-3.06,3.07H16.69v5.32a3.06,3.06,0,0,0,3.07,3.06h97.83a3.06,3.06,0,0,0,3.06-3.06V61h15.6A1.09,1.09,0,0,0,137.34,59.94Z"/><path class="cls-2" d="M41.47,7.87H17.84A1.14,1.14,0,0,0,16.7,9v5.92a1.13,1.13,0,0,0,1.14,1.13H41.47a1.13,1.13,0,0,0,1.14-1.13V9A1.14,1.14,0,0,0,41.47,7.87Z"/><path class="cls-3" d="M90.47,85.49a4.16,4.16,0,0,1-2.94-1.22,26.68,26.68,0,0,0-37.72,0,4.15,4.15,0,1,1-5.87-5.87,35,35,0,0,1,49.46,0,4.16,4.16,0,0,1-2.93,7.09Z"/><path class="cls-3" d="M100.67,73.26a4.13,4.13,0,0,1-2.93-1.21,41.1,41.1,0,0,0-58.13,0,4.15,4.15,0,1,1-5.87-5.87,49.41,49.41,0,0,1,69.87,0,4.15,4.15,0,0,1-2.94,7.08Z"/><path class="cls-3" d="M80.8,97.67a4.13,4.13,0,0,1-2.93-1.21,13,13,0,0,0-18.39,0,4.15,4.15,0,1,1-5.87-5.87,21.32,21.32,0,0,1,30.13,0,4.15,4.15,0,0,1-2.94,7.08Z"/><circle class="cls-3" cx="68.67" cy="106.71" r="5.86"/><path class="cls-2" d="M41.47,7.87H34.08v8.19h7.39a1.13,1.13,0,0,0,1.14-1.13V9A1.14,1.14,0,0,0,41.47,7.87Z"/></g></g></svg>