<?xml version="1.0" encoding="iso-8859-1"?>
<!-- Generator: Adobe Illustrator 19.0.0, SVG Export Plug-In . SVG Version: 6.00 Build 0)  -->
<svg version="1.1" id="Capa_1" xmlns="http://www.w3.org/2000/svg" xmlns:xlink="http://www.w3.org/1999/xlink" x="0px" y="0px"
	 viewBox="0 0 512.001 512.001" style="enable-background:new 0 0 512.001 512.001;" xml:space="preserve">
<path style="fill:#0072A2;" d="M253.38,13.177L145.057,107.45V70.078H78.68v95.139L1.408,232.466
	c-2.842,2.474-1.093,7.148,2.675,7.148h58.142v248.76c0,6.312,5.117,11.429,11.429,11.429h364.693
	c6.312,0,11.429-5.117,11.429-11.429v-248.76h58.142c3.768,0,5.517-4.675,2.675-7.148L258.62,13.177
	C257.118,11.87,254.882,11.87,253.38,13.177z"/>
<path style="fill:#006289;" d="M511.989,235.628c-0.12-0.91-0.546-1.802-1.362-2.512l-7.646-6.654
	c-0.052-0.29-0.15-0.575-0.268-0.854L258.62,13.177c-1.502-1.307-3.738-1.307-5.24,0L236.692,27.7l0.39,0.34l-0.669,0.582
	L441.054,206.72c-0.131,0.867-0.829,1.638-1.874,1.638h-19.369c-1.053,0-1.907,0.854-1.907,1.907v246.854
	c0,6.312-5.117,11.429-11.429,11.429H62.225v19.827c0,6.312,5.117,11.429,11.429,11.429h364.693c6.312,0,11.429-5.117,11.429-11.429
	v-248.76h58.142C510.346,239.614,511.927,237.671,511.989,235.628z"/>
<path style="fill:#A0D860;" d="M154.594,41.542H66.493c-2.338,0-4.234,1.896-4.234,4.234v22.069c0,2.338,1.896,4.234,4.234,4.234
	h88.101c2.338,0,4.234-1.896,4.234-4.234V45.777C158.828,43.438,156.932,41.542,154.594,41.542z"/>
<g>
	<path style="fill:#FFDE3E;" d="M337.248,330.869c-3.959,0-7.918-1.51-10.939-4.531c-18.78-18.78-43.75-29.123-70.309-29.123
		s-51.529,10.343-70.309,29.123c-6.042,6.042-15.837,6.042-21.878,0s-6.042-15.837,0-21.878
		c24.624-24.624,57.363-38.185,92.187-38.185s67.563,13.561,92.187,38.185c6.042,6.042,6.042,15.837,0,21.878
		C345.166,329.358,341.207,330.869,337.248,330.869z"/>
	<path style="fill:#FFDE3E;" d="M375.293,285.307c-3.959,0-7.918-1.51-10.939-4.531c-28.942-28.942-67.423-44.882-108.353-44.882
		c-40.931,0-79.411,15.939-108.354,44.882c-6.042,6.042-15.837,6.042-21.878,0s-6.042-15.837,0-21.878
		c34.786-34.786,81.037-53.944,130.232-53.944s95.446,19.157,130.232,53.944c6.042,6.042,6.042,15.837,0,21.878
		C383.211,283.797,379.252,285.307,375.293,285.307z"/>
	<path style="fill:#FFDE3E;" d="M301.211,376.302c-3.959,0-7.918-1.51-10.939-4.531c-18.897-18.897-49.645-18.897-68.543,0
		c-6.042,6.042-15.837,6.042-21.878,0c-6.041-6.041-6.041-15.837,0-21.878c30.962-30.961,81.339-30.961,112.3,0
		c6.041,6.042,6.041,15.837,0,21.878C309.129,374.792,305.17,376.302,301.211,376.302z"/>
	<circle style="fill:#FFDE3E;" cx="256" cy="409.98" r="21.834"/>
</g>
<path style="fill:#61C979;" d="M154.594,41.542h-27.541v30.537h27.541c2.338,0,4.234-1.896,4.234-4.234V45.777
	C158.828,43.438,156.932,41.542,154.594,41.542z"/>
<g>
</g>
<g>
</g>
<g>
</g>
<g>
</g>
<g>
</g>
<g>
</g>
<g>
</g>
<g>
</g>
<g>
</g>
<g>
</g>
<g>
</g>
<g>
</g>
<g>
</g>
<g>
</g>
<g>
</g>
</svg>
